<svg width="513" height="362" viewBox="0 0 513 362" fill="none" xmlns="http://www.w3.org/2000/svg">
<path d="M508.501 14.2778C525.228 240.849 379.587 347.939 249.024 359.359C127.639 369.975 13.3799 295.388 3.35611 180.791C-4.91246 86.115 53.602 45.8083 99.5761 41.7904C146.862 37.6455 186.598 70.2546 190.045 109.736C193.365 147.696 169.68 164.973 153.206 166.411C140.179 167.553 123.79 159.644 122.31 142.663C121.041 128.071 126.582 126.083 125.228 110.582C122.817 82.9852 98.7513 79.7708 85.5766 80.9128C69.6316 82.3085 40.7021 100.918 44.7624 147.273C48.8438 194.029 93.676 230.974 152.445 225.835C215.865 220.294 260.021 170.915 263.341 101.658C263.311 97.99 264.083 94.3596 265.604 91.0212L265.625 90.9366C266.308 89.486 267.107 88.0928 268.014 86.7706C269.368 84.7404 271.102 82.4988 273.344 80.0457C273.365 79.9823 273.365 79.9823 273.407 79.9823C275.035 78.1425 277.001 76.1546 279.221 74.0188C306.924 47.8808 406.698 -13.7635 501.057 5.75545C503.051 6.18294 504.854 7.24384 506.195 8.77979C507.537 10.3157 508.346 12.2444 508.501 14.2778Z" fill="url(#paint0_linear_893_2590)"/>
<defs>
<linearGradient id="paint0_linear_893_2590" x1="457.5" y1="87.5" x2="77.6993" y2="302.912" gradientUnits="userSpaceOnUse">
<stop stop-color="#0CC5FF"/>
<stop offset="1" stop-color="#007FFF"/>
</linearGradient>
</defs>
</svg>
